<?xml version="1.0" encoding="utf-8"?>
<!-- Generator: Adobe Illustrator 24.1.3, SVG Export Plug-In . SVG Version: 6.00 Build 0)  -->
<svg version="1.1" id="Layer_1" xmlns="http://www.w3.org/2000/svg" x="0px" y="0px"
	 width="203.7px" height="70px" viewBox="0 0 203.7 70" style="enable-background:new 0 0 203.7 70;" xml:space="preserve">
<style type="text/css">
	.st0{fill:#FF6633;}
</style>
<path class="st0" d="M180.7,46.7c-0.1,2.4-0.1,4.9-0.1,7.2l0,0c0,0.2,0,0.5,0,0.7l0.1,0.8l0,0l0.2,4.6l0.2,2.4V63c0,0.3,0,0.7-0.1,1
	c-0.1,0.3-0.2,0.6-0.5,0.8c-0.2,0.2-0.6,0.3-0.8,0.4s-0.6,0.1-0.8,0.1h-0.4h-0.2c-0.2,0-0.5,0-0.8,0.1l-0.4,0.1
	c-0.2,0-0.4,0.1-0.6,0.1h-0.9l-3.6,0.1l-7.6,0.1c-0.2,0-0.4-0.1-0.6-0.2c-0.1,0-0.2-0.1-0.2-0.1l-0.1-0.1l0,0
	c-0.1-0.2-0.2-0.3-0.2-0.5c-0.1-0.2-0.1-0.5-0.1-0.7l-0.1-0.7V63v-0.4v-0.2c0-0.1,0-0.2,0-0.3c0.1-0.4,0.3-0.8,0.6-1.1
	c0.2-0.2,0.3-0.4,0.5-0.7c0.3-0.4,0.7-0.8,1-1.1l2-2.3l0.7-0.8l0.1-0.1h-0.1h-0.2h-0.8h-0.7h-0.4h-0.7c-0.3,0-0.7-0.1-1.1-0.2
	c-0.1-0.1-0.2-0.1-0.2-0.2c-0.1-0.1-0.2-0.1-0.2-0.2c-0.1-0.2-0.2-0.3-0.2-0.5c-0.1-0.3-0.2-0.7-0.2-1.1v-0.9c0-0.4,0-0.8,0-1.3
	v-0.6V51c0,0,0-0.1-0.1-0.1h-0.1h-0.2l-1.5,0.1c-0.8,0.1-1.5,0.1-2.4,0.1c-0.2,0-0.2,0-0.4-0.1s-0.6-0.2-0.7-0.5l-0.1-0.2l-0.1-0.1
	v-0.1c0-0.1-0.1-0.2-0.1-0.3v-0.1v-0.1v-0.1c0.1-0.2,0.1-0.3,0.2-0.5v-0.1l0.1-0.2l0.2-0.2l0.4-0.5l0.8-1c0.2-0.2,0.3-0.5,0.6-0.7
	l0.7-0.7c0.4-0.5,0.9-1,1.4-1.4c0.2-0.2,0.6-0.4,0.8-0.7c0.2-0.2,0.3-0.3,0.5-0.5l0.2-0.2c0.1-0.1,0.1-0.1,0.1-0.1
	c0.1-0.1,0.1-0.1,0.2-0.2c0-0.1,0.1-0.2,0.1-0.2l0.1-0.3c0-0.2,0.1-0.5,0.1-0.7c0.1-0.5,0.1-0.9,0.2-1.3c0.1-0.7,0.2-1.2,0.4-1
	c0.2,0.4,0.5-0.4,0.7-0.4c0.1,0.5,0.2,1,0.2,1.5c0,0.5,0,0.9,0,1.4c0,0.2,0,0.5,0,0.7v0.5c0,0.2,0,0.3,0,0.5
	c-0.1,0.2-0.2,0.4-0.2,0.6c-0.1,0.2-0.2,0.2-0.2,0.3c-0.1,0.1-0.1,0.2-0.2,0.3l0.1-0.1c-0.9,1.3-1.8,2.4-2.7,3.6l-0.2,0.2l-0.1,0.1
	l-0.1,0.1l-0.2,0.2l-0.1,0.1c0,0,0,0,0,0.1h0.1h0.2h0.2h0.1h0.5h0.5h0.3c0.2,0,0.3,0,0.5,0h0.5c0.2,0,0.2,0.1,0.4,0.1
	c0.2,0.1,0.5,0.2,0.7,0.4c0.3,0.5,0.5,1,0.4,1.5v0.5V52v1v0.5v0.3c0,0.1,0,0.1,0,0.2c0,0.1,0.1,0,0.2,0h1.6h1.6c0.6,0,1.1,0,1.7,0.2
	c0.2,0.1,0.3,0.2,0.5,0.2l0.4,0.2c0.1,0.1,0.2,0.1,0.2,0.2l0.1,0.2l0.1,0.2l0.2,0.2l-0.9,1.1l-1,0.7l-1.4,1.5l-2,2.3
	c-0.3,0.4-0.7,0.7-1,1.1c-0.2,0.2-0.3,0.4-0.5,0.6c-0.2-0.1-0.2-0.1-0.2,0c0-0.1,0.1,1.1,0,0.9l0,0h0.1h0.1h6.7l3.4-0.1h0.8h0.2h0.1
	v0.2v0.2c0-0.2,0.1,0.6-0.1-0.4h0.1h0.1l0.5-0.1c0.3-0.1,0.7-0.1,1-0.1h0.3c0,0,0.1,0,0.1-0.1s0-0.1,0-0.2l-0.1-1.7l-0.2-3.6
	l-0.1-1.9l-0.1-0.9c0-0.3,0-0.7-0.1-1c0-1.2,0-2.4,0-3.6l0.1-7.2l0.1-3.6v-1.9v-0.8v-0.1c0,0,0,0-0.1,0l0,0l0,0H177h-2.7L163.6,37
	c-1.8,0-3.5,0.1-5.3,0.2l-1.4,0.1c-0.5,0-0.9,0-1.4,0c-0.9,0-1.9,0-2.6,0l0,0h-1.1h-0.8h-0.2h-0.2h-0.1c0,0-0.1,0-0.1,0.1l0,0v0.5
	c0,0.3-0.1,0.6-0.1,0.9c0,0.7,0,1.2,0,1.9l0.2,3.8l0.3,7.7v1v1v2v3.8v2v1c0,0.2,0,0.3,0,0.4v0.2v0v0.4v0.5c0.1,0.3,0.1,0.7,0,0.9
	c-0.1,0.2-0.2,0.4-0.2,0.6c-0.2,0.2-0.3,0.3-0.6,0.4c-0.6,0.2-1.1,0.2-1.7,0.1l-0.4-0.1h-0.1c-0.1,0-0.1,0-0.2,0h-0.2l-5.8-0.1h-1.5
	h-0.2c-0.1,0-0.2,0-0.2,0h-0.8l-1.5,0.1l-1.5,0.1c-0.9,0.1-2,0.2-2.8,0.2s-2,0.2-2.8,0.2l-5.8,0.2c-3.8,0.1-7.5,0.3-11.4,0.3
	c-2,0-3.8,0-5.8,0h-2.8l-2.8-0.1c-3.8-0.2-7.5-0.1-11.4,0.1c-2,0.1-3.7,0.2-5.7,0.3c-2,0.2-3.9,0.2-5.8,0.2c-0.9,0-1.9,0-2.7,0.1
	l-1.5,0.1c-0.5,0-1,0-1.5,0h-5.7H56.2c-13,0-26.1,0.1-39.1,0.2c-5.5,0-6.7-0.2-7.4-0.3c-0.4-0.1-1-0.2-2.9-0.2
	c-5.5-0.1-2.9-0.4-5-0.7c-0.3,0-0.7-0.1-0.9-0.2h0.2c-0.2-0.1,0.1-0.2-0.4-0.2c-1.4-0.2-0.3-0.4,4.8-0.3c0.9,0,1.9,0,2.7-0.1
	c-0.2-0.4,4.9-0.2,8-0.2C31.4,66,46,65.7,61,65.7h9.7c1.6,0,3.2,0,4.8,0l2.4-0.1c0.4,0,0.8,0,1.3,0h1.2c1.6,0,3.2-0.1,4.8-0.2
	s3.2-0.2,4.9-0.2c3.2-0.2,6.5-0.2,9.7-0.2l4.9,0.1c1.6,0,3.2,0,4.8,0s3.2,0,4.8,0s3.2-0.1,4.8-0.2c3.2-0.2,6.5-0.2,9.7-0.3
	c1.6,0,3.2-0.1,4.8-0.2l1.2-0.1c0.4-0.1,0.8-0.1,1.2-0.1c0.8-0.1,1.7-0.2,2.4-0.2l1.1-0.1h0.6h0.2h0.5h2.3l4.4,0.1h1.2h0.3h0.1h0.1
	c0.2,0.1,0.1-0.2,0.1-0.2v-0.4l0,0c0.1,0-0.2,0,0.4,0h0.3c0.9-0.1-0.8,0.1-0.7,0.1l0,0v-0.1c0-0.2,0-0.2,0-0.3v-0.3v-1.1v-2.3v-4.4
	c0-0.7,0-1.5-0.1-2.2l-0.1-2.3l-0.2-4.4c0-0.4,0-0.7,0-1.1l-0.1-1.1l-0.2-2.3l0,0v0.2c-0.1-0.7-0.2-1.6-0.2-2.4c0-0.5,0-1,0-1.5
	c0.1-0.6,0.1-1.2,0.2-1.8c0-0.2,0.1-0.3,0.2-0.5c0.1-0.2,0.2-0.4,0.4-0.6c0.2-0.2,0.4-0.2,0.7-0.3c0.2-0.1,0.5-0.1,0.7-0.2
	c0.2,0,0.2,0,0.4,0h0.3h0.4h0.4h0.9c1.1,0,2.3,0.1,3.3,0.1c0.6,0,1.1,0,1.6,0l1.7-0.1l3.3-0.1l0,0h0.9l0,0l10.5-0.1h-0.1l3-0.1h1.5
	h0.7c0.2,0,0.5,0,0.7,0s0.4,0.1,0.6,0.2c0.2,0.1,0.3,0.2,0.5,0.5c0.2,0.3,0.3,0.7,0.3,1.1c0,0.2,0,0.4,0,0.7v0.4v1.2
	c0,0.9,0,1.9,0,2.7C180.9,43,180.8,44.9,180.7,46.7L180.7,46.7z"/>
<path d="M29.6,28.8H26L20.5,9.6l-5.6,19.2h-3.6L4.1,1.3h4.4l4.8,19.6l5.5-19.6h3.3l5.5,19.6l4.8-19.6h4.4L29.6,28.8z"/>
<path d="M39.6,20.1c0,3.4,1.8,5.5,4.9,5.5c2.3,0,3.3-0.7,4.7-2l2.4,2.4c-2,2-3.9,3-7.3,3c-4.9,0-8.8-2.5-8.8-10.1
	c0-6.4,3.2-10,8.3-10c5.3,0,8.3,3.7,8.3,9.5v1.7H39.6z M47.9,14.8c-1.1-2.2-3.5-3-5.7-2.1c-0.9,0.4-1.7,1.2-2.1,2.1
	c-0.4,0.9-0.6,1.8-0.5,2.6h8.8C48.4,16.5,48.3,15.6,47.9,14.8L47.9,14.8z"/>
<path d="M68.5,27.4c-1.2,1.1-2.8,1.8-4.8,1.8c-2.1,0-3.6-0.6-5.2-2.4v2.1h-3.8V1.3h3.9v9.9c1.4-1.7,3-2.3,5.1-2.3
	c1.8-0.1,3.4,0.6,4.8,1.8c2,2,2.3,5,2.3,8.3S70.3,25.4,68.5,27.4z M62.6,12.5c-3.6,0-4.1,3-4.1,6.5s0.5,6.6,4.1,6.6
	c3.6,0,4.1-3,4.1-6.6S66.2,12.5,62.6,12.5L62.6,12.5z"/>
<path d="M85.3,29c-4.1,0-7.1-1-9.7-3.6l2.7-2.7c2,2,4.3,2.6,7.1,2.6c3.6,0,5.7-1.5,5.7-4.2c0-1.2-0.3-2.3-1.1-2.8
	c-0.7-0.7-1.6-1-3-1.2l-3.2-0.5c-2.3-0.3-4-1.1-5.2-2.3c-1.4-1.2-2.1-3-2.1-5.3c0-4.8,3.5-8,9.2-8c3.6,0,6.2,1,8.5,3.1l-2.6,2.6
	c-1.7-1.6-3.6-2.2-6.1-2.2c-3.2,0-4.9,1.8-4.9,4.3c-0.1,1,0.3,2,1.1,2.5c0.7,0.7,1.5,1.1,3,1.2l3.2,0.5c2.4,0.4,3.9,1,5.1,2.1
	c1.5,1.4,2.3,3.2,2.3,5.7C95.2,26.1,91,29,85.3,29z"/>
<path d="M100.8,20.1c0,3.4,1.8,5.5,4.9,5.5c2.3,0,3.3-0.7,4.8-2L113,26c-2,2-3.9,3-7.3,3c-4.9,0-8.8-2.5-8.8-10.1
	c0-6.4,3.2-10,8.3-10c5.3,0,8.3,3.7,8.3,9.5v1.7H100.8z M108.9,14.8c-1.1-2.2-3.5-3-5.7-2.1c-0.9,0.4-1.7,1.2-2.1,2.1
	c-0.4,0.9-0.6,1.8-0.5,2.6h8.8C109.5,16.5,109.3,15.6,108.9,14.8L108.9,14.8z"/>
<path d="M123.7,29c-4.4,0-8.7-2.7-8.7-10.1s4.3-10,8.7-10c2.7,0,4.6,0.8,6.5,2.7l-2.7,2.6c-1.2-1.4-2.3-1.9-3.7-1.9
	s-2.7,0.7-3.6,1.8c-0.9,1.1-1.2,2.4-1.2,4.8s0.3,3.6,1.2,4.8c0.9,1.1,2.3,1.8,3.6,1.8c1.5,0,2.4-0.5,3.7-1.9l2.7,2.5
	C128.6,28.1,126.2,29.1,123.7,29z"/>
<path d="M143.8,28.8v-2c-1.4,1.5-3.2,2.3-5.2,2.3c-1.8,0.1-3.5-0.6-4.8-1.9c-1.5-1.5-2-3.3-2-5.5V9.2h3.9v11.9c0,3,1.8,4.4,3.9,4.4
	c2.2,0,4.1-1.4,4.1-4.4V9.2h3.9v19.5L143.8,28.8z"/>
<path d="M161.7,13.8c-0.9-0.9-1.6-1.3-2.9-1.3c-2.2,0-3.9,1.7-3.9,4.4v11.9H151V9.2h3.8v2.2c1.1-1.4,3-2.4,5.2-2.4
	c1.8-0.1,3.4,0.6,4.7,1.9L161.7,13.8z"/>
<path d="M165.7,5.4V1.2h4.1v4.1C169.9,5.4,165.7,5.4,165.7,5.4z M165.8,28.8V9.2h3.9v19.5L165.8,28.8z"/>
<path d="M178.9,28.8c-3.6,0-5.4-2.6-5.4-5.4V12.3h-2.3v-3h2.3V3.7h3.9v5.6h3.7v3h-3.7v11c0,1.5,0.7,2.4,2.2,2.4h1.6v3.3L178.9,28.8
	L178.9,28.8z"/>
<path d="M190.9,32.6c-0.3,0.9-0.8,1.8-1.5,2.4c-1.1,1.1-2.4,1.5-4,1.5h-1.6v-3.5h1.1c1.7,0,2.3-0.5,2.7-2.1l1.1-3l-6.9-18.7h4.1
	l4.7,13.8l4.5-13.8h4.2L190.9,32.6z"/>
<path d="M23,61.2l-2-5.5H10.2l-2,5.5H3.8l10.1-27.5h3.3l10.1,27.5C27.3,61.2,23,61.2,23,61.2z M15.8,39.8L11.5,52h8.4L15.8,39.8z"/>
<path d="M35.9,61.4c-4.4,0-8.7-2.7-8.7-10.1s4.3-10,8.7-10c2.7,0,4.6,0.8,6.5,2.7l-2.7,2.6c-1.2-1.4-2.3-1.9-3.7-1.9
	s-2.7,0.7-3.6,1.8c-0.9,1.1-1.2,2.4-1.2,4.8s0.3,3.6,1.2,4.8c0.9,1.1,2.3,1.8,3.6,1.8c1.5,0,2.4-0.5,3.7-1.9l2.7,2.5
	C40.7,60.5,38.3,61.4,35.9,61.4z"/>
<path d="M55.1,61.2v-1.9c-1.5,1.5-2.7,2-5.2,2c-2.4,0-4.1-0.6-5.3-1.9c-1.1-1.1-1.6-2.6-1.5-4.2c0-3.2,2.4-5.7,6.8-5.7H55v-1.4
	c0-2.4-1.2-3.6-4.3-3.6c-2.1,0-3.2,0.6-4.3,2l-2.5-2.4c1.9-2.2,3.6-2.8,7.1-2.8c5.4,0,8,2.4,8,6.7v13.1L55.1,61.2z M55,52.4h-4.5
	c-2.4,0-3.6,1.1-3.6,2.7c0,1.8,1.1,2.7,3.6,2.7c1.4,0,2.4-0.2,3.6-1.1c0.7-0.6,0.9-1.5,0.9-2.8C55,54,55,52.4,55,52.4z"/>
<path d="M73.4,61.2v-2.1c-1.5,1.8-3,2.4-5.2,2.4c-1.8,0.1-3.5-0.6-4.8-1.8c-2-2-2.3-5-2.3-8.3s0.3-6.3,2.3-8.3
	c1.3-1.2,3-1.9,4.8-1.8c2.1,0,3.6,0.5,5.1,2.3v-9.9h3.9v27.5C77.2,61.2,73.4,61.2,73.4,61.2z M69.4,44.9c-3.6,0-4.1,3-4.1,6.5
	s0.5,6.6,4.1,6.6s4.1-3,4.1-6.6C73.4,47.8,72.9,44.9,69.4,44.9z"/>
<path d="M83.6,52.4c0,3.4,1.8,5.5,4.9,5.5c2.3,0,3.3-0.7,4.7-2l2.4,2.4c-2,2-3.9,3-7.3,3c-4.9,0-8.8-2.5-8.8-10.1
	c0-6.4,3.2-10,8.3-10c5.3,0,8.3,3.7,8.3,9.5v1.7C96.2,52.4,83.6,52.4,83.6,52.4z M91.8,47.1c-1.1-2.2-3.5-3-5.7-2.1
	c-0.9,0.4-1.7,1.2-2.1,2.1s-0.6,1.8-0.5,2.6h8.8C92.4,48.8,92.2,47.9,91.8,47.1L91.8,47.1z"/>
<path d="M122.5,61.2v-12c0-3-1.8-4.4-3.9-4.4c-2.2,0-4.1,1.4-4.1,4.1v12.1h-3.9v-12c0-3-1.8-4.4-3.9-4.4c-2.3,0-4.1,1.4-4.1,4.4v12
	h-4V41.6h3.8v2c1.4-1.5,3.2-2.3,5.2-2.3c2.4,0,4.3,1,5.6,2.8c1.5-2,3.7-2.9,6.2-2.8c1.9-0.1,3.6,0.6,4.9,1.9
	c1.5,1.5,2.1,3.3,2.1,5.5v12.5H122.5z"/>
<path d="M135.6,65.1c-0.3,0.9-0.8,1.8-1.5,2.4c-1.1,1.1-2.4,1.5-4,1.5h-1.6v-3.5h1.1c1.7,0,2.3-0.5,2.7-2.1l1.1-3l-6.9-18.7h4.1
	l4.7,13.8l4.5-13.8h4.2L135.6,65.1z"/>
</svg>
