<svg xmlns="http://www.w3.org/2000/svg" width="16" height="20" viewBox="0 0 16 20"><title>ps-lab-notsolved</title><path d="M15.39,19a1.07,1.07,0,0,1-.9.5H1.63A1.08,1.08,0,0,1,.66,18L6.53,5.38,6.56,1h-1a.25.25,0,0,1,0-.5h5a.25.25,0,0,1,0,.5h-1V5.3L15.46,18A1.05,1.05,0,0,1,15.39,19Z" fill="#fff"/><path d="M15.91,17.79,10.06,5.22V1.52h.5a.75.75,0,0,0,0-1.5h-5a.75.75,0,0,0,0,1.5h.5v3.7L.21,17.79A1.57,1.57,0,0,0,1.63,20H14.49a1.57,1.57,0,0,0,1.42-2.23ZM15.39,19a1.07,1.07,0,0,1-.9.5H1.63A1.08,1.08,0,0,1,.66,18L6.53,5.38,6.56,1h-1a.25.25,0,0,1,0-.5h5a.25.25,0,0,1,0,.5h-1V5.3L15.46,18A1.05,1.05,0,0,1,15.39,19Z" fill="#333332"/><polygon points="10.7 10.94 8.02 13.62 5.34 10.94 4.6 11.68 7.28 14.36 4.6 17.04 5.34 17.78 8.02 15.1 10.7 17.78 11.44 17.04 8.76 14.36 11.44 11.68 10.7 10.94" fill="#333332"/></svg>