<svg xmlns="http://www.w3.org/2000/svg" width="270" height="70" viewBox="0 0 270 70"><title>lab-blog</title><path d="M3.78,11.1,5.47,5.22a.8.8,0,0,1,.2-.4.69.69,0,0,1,.41-.09h.44a.71.71,0,0,1,.41.09.74.74,0,0,1,.21.36L9.06,11.1l1-7.82H8.48a1.07,1.07,0,0,1-.66-.16.58.58,0,0,1-.21-.5.59.59,0,0,1,.2-.52A1.31,1.31,0,0,1,8.56,2h3.18a.51.51,0,0,1,.39.19.71.71,0,0,1,.16.48.65.65,0,0,1-.18.5.92.92,0,0,1-.57.16h-.11L10,13.12a.88.88,0,0,1-.11.4.38.38,0,0,1-.28.1H9a.56.56,0,0,1-.35-.09.71.71,0,0,1-.21-.34L6.26,6.43,4.37,13.21a.62.62,0,0,1-.18.33.64.64,0,0,1-.36.08H3.1a.35.35,0,0,1-.29-.1.72.72,0,0,1-.14-.42L1.18,3.28H1.06a.87.87,0,0,1-.58-.17.6.6,0,0,1-.19-.49.68.68,0,0,1,.16-.48A.46.46,0,0,1,.83,2H4a1.3,1.3,0,0,1,.74.15A.59.59,0,0,1,5,2.62a.58.58,0,0,1-.21.5,1.09,1.09,0,0,1-.66.16H2.71Z" fill="#8c8d8e"/><path d="M19.17,13.62H18.7a.72.72,0,0,1-.53-.18.67.67,0,0,1-.19-.53.6.6,0,0,1,.22-.54,2.12,2.12,0,0,1,1-.14h.63V3.37h-.63a1.79,1.79,0,0,1-1-.16A.61.61,0,0,1,18,2.66a.7.7,0,0,1,.19-.54A.79.79,0,0,1,18.72,2H27.3a.66.66,0,0,1,.51.2.92.92,0,0,1,.17.59V5.06a1.23,1.23,0,0,1-.15.71A.62.62,0,0,1,27.3,6a.65.65,0,0,1-.56-.21,2,2,0,0,1-.15-1V3.37H21.35V6.68h2.58V6.16a1.46,1.46,0,0,1,.14-.74.57.57,0,0,1,.5-.2.51.51,0,0,1,.48.22,2.12,2.12,0,0,1,.13.95V8.22a1.9,1.9,0,0,1-.14.94.53.53,0,0,1-.49.21.52.52,0,0,1-.49-.24,2.25,2.25,0,0,1-.13-.91V7.87H21.35v4.36h5.24V10.64a2,2,0,0,1,.15-1,.65.65,0,0,1,.56-.21.62.62,0,0,1,.53.2,1.35,1.35,0,0,1,.15.76v2.48a.73.73,0,0,1-.18.54.67.67,0,0,1-.5.19Z" fill="#8c8d8e"/><path d="M61.22,9.65a1.91,1.91,0,0,1,.15-1,.62.62,0,0,1,.56-.22.71.71,0,0,1,.53.18.8.8,0,0,1,.18.57v3.66a.73.73,0,0,1-.19.54.72.72,0,0,1-.52.19h-9.2a.72.72,0,0,1-.53-.18.71.71,0,0,1-.18-.53.62.62,0,0,1,.21-.54,2.16,2.16,0,0,1,1-.14h1.24V3.37H53.19a1.82,1.82,0,0,1-.95-.16A.63.63,0,0,1,52,2.66a.73.73,0,0,1,.18-.54A.84.84,0,0,1,52.77,2H58.1a.75.75,0,0,1,.54.18.71.71,0,0,1,.19.53.63.63,0,0,1-.22.55,1.89,1.89,0,0,1-1,.16H56v8.86h5.24Z" fill="#8c8d8e"/><path d="M77.57,12.23a2.18,2.18,0,0,1,1,.14.62.62,0,0,1,.21.54.63.63,0,0,1-.21.55,1.86,1.86,0,0,1-1,.16H71.13a.78.78,0,0,1-.55-.18.71.71,0,0,1-.18-.53.62.62,0,0,1,.21-.54,2.21,2.21,0,0,1,1-.14h2.22V3.37H71.59a1.89,1.89,0,0,1-1-.16.61.61,0,0,1-.22-.55.73.73,0,0,1,.18-.54A.85.85,0,0,1,71.14,2H78a.72.72,0,0,1,.53.18.67.67,0,0,1,.19.53.63.63,0,0,1-.22.55,1.84,1.84,0,0,1-1,.16H75.34v8.86Z" fill="#8c8d8e"/><path d="M89.63,12.23h.66a1.47,1.47,0,0,1,.81.16.57.57,0,0,1,.24.52.65.65,0,0,1-.21.55,1.39,1.39,0,0,1-.78.16H87a.67.67,0,0,1-.51-.18.78.78,0,0,1-.17-.53.62.62,0,0,1,.19-.52,1,1,0,0,1,.66-.16h.94V3.37h-.63a1.72,1.72,0,0,1-.95-.16.63.63,0,0,1-.21-.55.77.77,0,0,1,.17-.53A.67.67,0,0,1,87,2h3.37a1.31,1.31,0,0,1,.78.16.64.64,0,0,1,.21.55.59.59,0,0,1-.27.55,2.21,2.21,0,0,1-1,.16h-.44v4l4.1-4H93.4a1.16,1.16,0,0,1-.7-.17.62.62,0,0,1-.22-.54.75.75,0,0,1,.17-.55A.74.74,0,0,1,93.19,2H96.1a.69.69,0,0,1,.51.18.72.72,0,0,1,.18.53.6.6,0,0,1-.24.54,1.45,1.45,0,0,1-.82.17h-.14L91.78,7.05a3,3,0,0,1,1.66,1.1,26,26,0,0,1,2.48,4.08h.18a1.49,1.49,0,0,1,.81.15.6.6,0,0,1,.21.53.78.78,0,0,1-.17.53.69.69,0,0,1-.51.18H95.5a1.22,1.22,0,0,1-.46-.07.77.77,0,0,1-.29-.32c-.06-.09-.43-.75-1.1-2l-.38-.72A6.78,6.78,0,0,0,92,8.79a2.39,2.39,0,0,0-1.32-.67l-1.08,1Z" fill="#8c8d8e"/><path d="M104.48,13.62H104a.72.72,0,0,1-.53-.18.67.67,0,0,1-.19-.53.62.62,0,0,1,.21-.54,2.18,2.18,0,0,1,1-.14h.63V3.37h-.63a1.84,1.84,0,0,1-1-.16.63.63,0,0,1-.22-.55.7.7,0,0,1,.19-.54A.79.79,0,0,1,104,2h8.58a.66.66,0,0,1,.51.2.92.92,0,0,1,.17.59V5.06a1.23,1.23,0,0,1-.15.71.63.63,0,0,1-.53.19.65.65,0,0,1-.56-.21,2,2,0,0,1-.15-1V3.37h-5.24V6.68h2.58V6.16a1.46,1.46,0,0,1,.14-.74.56.56,0,0,1,.5-.2.51.51,0,0,1,.48.22,2.12,2.12,0,0,1,.13.95V8.22a1.9,1.9,0,0,1-.14.94.53.53,0,0,1-.49.21.51.51,0,0,1-.49-.24,2.08,2.08,0,0,1-.13-.91V7.87h-2.58v4.36h5.24V10.64a2,2,0,0,1,.15-1,.65.65,0,0,1,.56-.21.62.62,0,0,1,.53.2,1.35,1.35,0,0,1,.15.76v2.48a.73.73,0,0,1-.18.54.67.67,0,0,1-.5.19Z" fill="#8c8d8e"/><path d="M139.14,5.92a1.86,1.86,0,0,1-.17.94.87.87,0,0,1-1.11,0,.72.72,0,0,1-.17-.53c0-.21,0-.36,0-.47l.1-3.24a.74.74,0,0,1,.19-.53.79.79,0,0,1,.55-.16h8.56a.79.79,0,0,1,.55.16.74.74,0,0,1,.19.53L148,5.88c0,.12,0,.23,0,.34a.85.85,0,0,0,0,.15.65.65,0,0,1-.19.52.77.77,0,0,1-.56.18.62.62,0,0,1-.54-.21,1.86,1.86,0,0,1-.17-.94l-.1-2.55H143.6v8.86h1.9a.92.92,0,0,1,.6.16.67.67,0,0,1,.18.52.78.78,0,0,1-.17.53.7.7,0,0,1-.52.18h-5.52a.69.69,0,0,1-.51-.18.74.74,0,0,1-.18-.53.62.62,0,0,1,.19-.52,1,1,0,0,1,.66-.16h1.84V3.37h-2.83Z" fill="#8c8d8e"/><path d="M165.22,7.77a6.53,6.53,0,0,1-1.5,4.43,5.09,5.09,0,0,1-7.64,0,6.46,6.46,0,0,1-1.51-4.42,6.54,6.54,0,0,1,1.49-4.43,5.12,5.12,0,0,1,7.66,0A6.48,6.48,0,0,1,165.22,7.77Zm-5.33,4.76a3.11,3.11,0,0,0,2.61-1.26,5.75,5.75,0,0,0,.95-3.5,5.72,5.72,0,0,0-.95-3.49A3.09,3.09,0,0,0,159.89,3a3.05,3.05,0,0,0-2.6,1.26,5.73,5.73,0,0,0-.94,3.5,5.68,5.68,0,0,0,1,3.5A3.06,3.06,0,0,0,159.89,12.53Z" fill="#8c8d8e"/><path d="M0,26H17.17a50.1,50.1,0,0,1,7.6.42,11.39,11.39,0,0,1,4.48,1.77,11.09,11.09,0,0,1,3.3,3.59,9.68,9.68,0,0,1,1.32,5,10.17,10.17,0,0,1-6,9.3,11.29,11.29,0,0,1,6,3.9A10.35,10.35,0,0,1,36,56.47a12.78,12.78,0,0,1-1.37,5.7,11.4,11.4,0,0,1-3.72,4.41,12.17,12.17,0,0,1-5.81,2c-1.45.15-4.93.25-10.46.29H0Zm8.67,7.14v9.92h5.69q5.06,0,6.29-.15a5.7,5.7,0,0,0,3.51-1.53A4.57,4.57,0,0,0,25.43,38a4.73,4.73,0,0,0-1.1-3.24,4.93,4.93,0,0,0-3.27-1.5q-1.29-.15-7.41-.15Zm0,17.06V61.68h8a40.36,40.36,0,0,0,5.95-.26,5.39,5.39,0,0,0,3.15-1.71A5.27,5.27,0,0,0,27,56.06a5.53,5.53,0,0,0-.94-3.27,5.23,5.23,0,0,0-2.71-2q-1.77-.61-7.69-.62Z" fill="#ae75c3"/><path d="M43.53,68.91V26.36h8.68V61.68H73.77v7.23Z" fill="#ae75c3"/><path d="M78.19,47.72a27.24,27.24,0,0,1,2-11,20.22,20.22,0,0,1,4-5.88A16.72,16.72,0,0,1,89.7,27,23.64,23.64,0,0,1,99,25.28q9.5,0,15.19,5.88t5.7,16.36q0,10.38-5.66,16.26T99.08,69.64q-9.58,0-15.24-5.84T78.19,47.72Zm8.93-.29q0,7.29,3.37,11a11.6,11.6,0,0,0,17.07,0q3.33-3.73,3.32-11.2t-3.23-11a12,12,0,0,0-17.24,0Q87.13,40,87.12,47.43Z" fill="#ae75c3"/><path d="M146.59,53.14V45.91h18.69V63a23.4,23.4,0,0,1-7.89,4.64,28.91,28.91,0,0,1-10.47,2,23.54,23.54,0,0,1-11.75-2.82,18,18,0,0,1-7.53-8.08,26.07,26.07,0,0,1-2.52-11.43,24.77,24.77,0,0,1,2.81-11.91,19,19,0,0,1,8.24-8,22.27,22.27,0,0,1,10.28-2.13q8,0,12.49,3.35a15.11,15.11,0,0,1,5.79,9.26l-8.61,1.61a9.11,9.11,0,0,0-3.42-5,10.31,10.31,0,0,0-6.25-1.83,11.77,11.77,0,0,0-9,3.6Q134,39.88,134.06,47q0,7.63,3.39,11.46a11.36,11.36,0,0,0,8.91,3.82,14.94,14.94,0,0,0,5.46-1.07,18.27,18.27,0,0,0,4.7-2.59V53.14Z" fill="#ae75c3"/><circle cx="204.71" cy="18.76" r="2.83" fill="#8c8d8e"/><circle cx="244.48" cy="18.76" r="2.83" fill="#8c8d8e"/><path d="M221.12,40.77h7.64a9.34,9.34,0,0,0,2,5.88,9,9,0,0,0,5.08,3,56.71,56.71,0,0,0,11,.8c5.22,0,8.65.13,10.31.28a19.65,19.65,0,0,1,6.35,1.57,10.39,10.39,0,0,1,6,7.14,22.74,22.74,0,0,1,.52,5.8v2.63h-7.36V66.42q0-4.86-1.75-6.46T253,58.37q-11.72,0-14.86-.42a18.56,18.56,0,0,1-8.31-3A14.5,14.5,0,0,1,225,48.59a15.82,15.82,0,0,1-6.82,7.58q-4.25,2.2-14.32,2.2-9.14,0-10.92.24-3.14.31-4.38,1.85t-1.24,6v1.46h-7.36V65.25a21.14,21.14,0,0,1,.75-6.64,10.72,10.72,0,0,1,3.47-5,12.72,12.72,0,0,1,6.14-2.55,90.65,90.65,0,0,1,12.13-.63q8.45,0,11.65-.8a8.94,8.94,0,0,0,5.08-3A9.34,9.34,0,0,0,221.12,40.77Z" fill="#ae75c3"/><rect x="195.82" y="1.98" width="17.78" height="2.84" fill="#8c8d8e"/><rect x="235.59" y="1.98" width="17.78" height="2.84" fill="#8c8d8e"/><rect x="215.83" y="66" width="17.78" height="2.84" fill="#8c8d8e"/></svg>